<?xml version="1.0" encoding="utf-8"?>
<!-- Generator: Adobe Illustrator 24.0.2, SVG Export Plug-In . SVG Version: 6.00 Build 0)  -->
<svg version="1.1" id="Layer_1" xmlns="http://www.w3.org/2000/svg" xmlns:xlink="http://www.w3.org/1999/xlink" x="0px" y="0px"
	 viewBox="0 0 47 47" style="enable-background:new 0 0 47 47;" xml:space="preserve">
<title>ball</title>
<path d="M0,28v-8c0.3-0.4,0.8-0.7,0.9-1.1c2.4-10.2,8.7-16.1,19-18C20.3,0.8,20.6,0.3,21,0h5c0.4,0.3,0.7,0.8,1.1,0.9
	c10.4,2,16.7,8.2,18.8,18.6c0.1,0.7,0.3,1.3,1,1.5v4c-0.6,0.6-0.9,1.4-1,2.2C44.1,37.6,38,43.9,27.6,46c-0.7,0.1-1.2,0.5-1.6,1h-5
	c-0.5-0.4-1.1-0.7-1.7-0.9C9.8,44.3,3.9,38.6,1.1,29.4C0.9,28.8,0.8,28.2,0,28z M26.7,26.7c-6.8,2.5-12.3,6.2-15.6,12.5
	c6.3,5.3,13.5,6.1,20,2.4C30.5,36.3,29,31.3,26.7,26.7z M8.4,36.6c2.4-2.8,4.9-5.4,7.6-7.9c2.7-2.4,6.3-3.4,9-5.3
	c0.1-1.8-0.6-2.7-1.8-3.2C16.7,22,9.9,22.4,3.1,23.3C3.3,28.4,4.5,32.6,8.4,36.6z M22.3,16.8c-2-3.9-4.4-7.5-7.2-10.9
	C8.8,7.7,4.5,13.3,4.3,19.8C10.3,19.2,16.3,19.3,22.3,16.8z M19,4.6l7.1,11.3c4.4-1.5,8-3.5,10.4-7.3C30.5,3.4,24.9,2.1,19,4.6z
	 M43.4,22.9c-0.1-4.5-0.8-8.5-4.9-11.7c-3.2,3.3-7,5.3-10.4,7.4c-0.1,1.7,0.6,3.3,2,4.3H43.4z M30.8,26.1l3.8,13.8
	c6.1-4,8.6-8.5,7.9-13.6C38.8,25.8,35.2,24.2,30.8,26.1L30.8,26.1z"/>
</svg>
